<mxfile host="Electron" modified="2024-03-27T15:09:12.590Z" agent="Mozilla/5.0 (Windows NT 10.0; Win64; x64) AppleWebKit/537.36 (KHTML, like Gecko) draw.io/22.1.16 Chrome/120.0.6099.109 Electron/28.1.0 Safari/537.36" etag="l5ox7jQbbdevAz8-7Ee9" version="22.1.16" type="device">
  <diagram name="Page-1" id="2YBvvXClWsGukQMizWep">
    <mxGraphModel dx="1050" dy="621" grid="1" gridSize="10" guides="1" tooltips="1" connect="1" arrows="1" fold="1" page="0" pageScale="1" pageWidth="827" pageHeight="1169" background="#FFFFFF" math="0" shadow="0">
      <root>
        <mxCell id="0" />
        <mxCell id="1" parent="0" />
        <mxCell id="DABJ5kpBdmpMZS1tpIU1-27" value="SaleProcess&lt;br&gt;Controller" style="shape=umlLifeline;perimeter=lifelinePerimeter;whiteSpace=wrap;html=1;container=0;dropTarget=0;collapsible=0;recursiveResize=0;outlineConnect=0;portConstraint=eastwest;newEdgeStyle={&quot;edgeStyle&quot;:&quot;elbowEdgeStyle&quot;,&quot;elbow&quot;:&quot;vertical&quot;,&quot;curved&quot;:0,&quot;rounded&quot;:0};fillColor=#dae8fc;strokeColor=#6c8ebf;" parent="1" vertex="1">
          <mxGeometry x="460" y="119" width="100" height="481" as="geometry" />
        </mxCell>
        <mxCell id="DABJ5kpBdmpMZS1tpIU1-28" value="" style="html=1;points=[];perimeter=orthogonalPerimeter;outlineConnect=0;targetShapes=umlLifeline;portConstraint=eastwest;newEdgeStyle={&quot;edgeStyle&quot;:&quot;elbowEdgeStyle&quot;,&quot;elbow&quot;:&quot;vertical&quot;,&quot;curved&quot;:0,&quot;rounded&quot;:0};" parent="DABJ5kpBdmpMZS1tpIU1-27" vertex="1">
          <mxGeometry x="45" y="70" width="10" height="370" as="geometry" />
        </mxCell>
        <mxCell id="XURBoSw-mr98O_FVrbe_-1" value="Loop" style="shape=umlFrame;whiteSpace=wrap;html=1;pointerEvents=0;fillColor=#FFFFFF;shadow=0;fillStyle=auto;gradientColor=none;swimlaneFillColor=default;" vertex="1" parent="1">
          <mxGeometry x="516" y="225.5" width="535" height="264.5" as="geometry" />
        </mxCell>
        <mxCell id="DABJ5kpBdmpMZS1tpIU1-31" value="" style="endArrow=classic;html=1;rounded=0;" parent="1" edge="1">
          <mxGeometry width="50" height="50" relative="1" as="geometry">
            <mxPoint x="210" y="240" as="sourcePoint" />
            <mxPoint x="360" y="240" as="targetPoint" />
          </mxGeometry>
        </mxCell>
        <mxCell id="A-KicLXsKf3YkkeomPCv-2" value="" style="endArrow=classic;html=1;rounded=0;" parent="1" edge="1">
          <mxGeometry width="50" height="50" relative="1" as="geometry">
            <mxPoint x="515" y="262" as="sourcePoint" />
            <mxPoint x="520" y="282" as="targetPoint" />
            <Array as="points">
              <mxPoint x="545" y="262" />
              <mxPoint x="565" y="262" />
              <mxPoint x="565" y="282" />
              <mxPoint x="550" y="282" />
            </Array>
          </mxGeometry>
        </mxCell>
        <mxCell id="A-KicLXsKf3YkkeomPCv-3" value="addTickets(Ticket)" style="text;html=1;align=center;verticalAlign=middle;resizable=0;points=[];autosize=1;strokeColor=none;fillColor=none;" parent="1" vertex="1">
          <mxGeometry x="558" y="257" width="120" height="30" as="geometry" />
        </mxCell>
        <mxCell id="A-KicLXsKf3YkkeomPCv-5" value="" style="endArrow=classic;html=1;rounded=0;" parent="1" edge="1">
          <mxGeometry width="50" height="50" relative="1" as="geometry">
            <mxPoint x="516" y="550" as="sourcePoint" />
            <mxPoint x="1145.5" y="550" as="targetPoint" />
            <Array as="points">
              <mxPoint x="682" y="550" />
            </Array>
          </mxGeometry>
        </mxCell>
        <mxCell id="A-KicLXsKf3YkkeomPCv-6" value="cardPayment()" style="text;html=1;align=center;verticalAlign=middle;resizable=0;points=[];autosize=1;strokeColor=none;fillColor=none;" parent="1" vertex="1">
          <mxGeometry x="575" y="527" width="100" height="30" as="geometry" />
        </mxCell>
        <mxCell id="A-KicLXsKf3YkkeomPCv-8" value="" style="endArrow=open;dashed=1;html=1;dashPattern=1 3;strokeWidth=2;rounded=0;endFill=0;" parent="1" edge="1">
          <mxGeometry width="50" height="50" relative="1" as="geometry">
            <mxPoint x="1140" y="589" as="sourcePoint" />
            <mxPoint x="215" y="589" as="targetPoint" />
          </mxGeometry>
        </mxCell>
        <mxCell id="A-KicLXsKf3YkkeomPCv-9" value="return" style="text;html=1;align=center;verticalAlign=middle;resizable=0;points=[];autosize=1;strokeColor=none;fillColor=none;" parent="1" vertex="1">
          <mxGeometry x="290" y="559" width="50" height="30" as="geometry" />
        </mxCell>
        <mxCell id="A-KicLXsKf3YkkeomPCv-15" value="CardPayment" style="shape=umlLifeline;perimeter=lifelinePerimeter;whiteSpace=wrap;html=1;container=0;dropTarget=0;collapsible=0;recursiveResize=0;outlineConnect=0;portConstraint=eastwest;newEdgeStyle={&quot;edgeStyle&quot;:&quot;elbowEdgeStyle&quot;,&quot;elbow&quot;:&quot;vertical&quot;,&quot;curved&quot;:0,&quot;rounded&quot;:0};fillColor=#dae8fc;strokeColor=#6c8ebf;" parent="1" vertex="1">
          <mxGeometry x="1100" y="120" width="100" height="480" as="geometry" />
        </mxCell>
        <mxCell id="A-KicLXsKf3YkkeomPCv-16" value="" style="html=1;points=[];perimeter=orthogonalPerimeter;outlineConnect=0;targetShapes=umlLifeline;portConstraint=eastwest;newEdgeStyle={&quot;edgeStyle&quot;:&quot;elbowEdgeStyle&quot;,&quot;elbow&quot;:&quot;vertical&quot;,&quot;curved&quot;:0,&quot;rounded&quot;:0};" parent="A-KicLXsKf3YkkeomPCv-15" vertex="1">
          <mxGeometry x="45" y="380" width="10" height="100" as="geometry" />
        </mxCell>
        <mxCell id="A-KicLXsKf3YkkeomPCv-19" value="" style="endArrow=classic;html=1;rounded=0;" parent="1" edge="1">
          <mxGeometry width="50" height="50" relative="1" as="geometry">
            <mxPoint x="516" y="460" as="sourcePoint" />
            <mxPoint x="521" y="480" as="targetPoint" />
            <Array as="points">
              <mxPoint x="546" y="460" />
              <mxPoint x="566" y="460" />
              <mxPoint x="566" y="480" />
              <mxPoint x="551" y="480" />
            </Array>
          </mxGeometry>
        </mxCell>
        <mxCell id="A-KicLXsKf3YkkeomPCv-21" value="updateTotal()" style="text;html=1;align=center;verticalAlign=middle;resizable=0;points=[];autosize=1;strokeColor=none;fillColor=none;" parent="1" vertex="1">
          <mxGeometry x="563" y="454" width="90" height="30" as="geometry" />
        </mxCell>
        <mxCell id="SVFjwH6glS1T2FLCE4Vb-1" value="startSaleProcess()" style="text;html=1;align=center;verticalAlign=middle;resizable=0;points=[];autosize=1;strokeColor=none;fillColor=none;" parent="1" vertex="1">
          <mxGeometry x="228" y="215" width="120" height="30" as="geometry" />
        </mxCell>
        <mxCell id="SVFjwH6glS1T2FLCE4Vb-2" value="Cinema" style="shape=umlLifeline;perimeter=lifelinePerimeter;whiteSpace=wrap;html=1;container=0;dropTarget=0;collapsible=0;recursiveResize=0;outlineConnect=0;portConstraint=eastwest;newEdgeStyle={&quot;edgeStyle&quot;:&quot;elbowEdgeStyle&quot;,&quot;elbow&quot;:&quot;vertical&quot;,&quot;curved&quot;:0,&quot;rounded&quot;:0};fillColor=#dae8fc;strokeColor=#6c8ebf;" parent="1" vertex="1">
          <mxGeometry x="680" y="120" width="100" height="480" as="geometry" />
        </mxCell>
        <mxCell id="SVFjwH6glS1T2FLCE4Vb-3" value="" style="html=1;points=[];perimeter=orthogonalPerimeter;outlineConnect=0;targetShapes=umlLifeline;portConstraint=eastwest;newEdgeStyle={&quot;edgeStyle&quot;:&quot;elbowEdgeStyle&quot;,&quot;elbow&quot;:&quot;vertical&quot;,&quot;curved&quot;:0,&quot;rounded&quot;:0};" parent="SVFjwH6glS1T2FLCE4Vb-2" vertex="1">
          <mxGeometry x="45" y="160" width="10" height="180" as="geometry" />
        </mxCell>
        <mxCell id="SVFjwH6glS1T2FLCE4Vb-4" value="Client" style="shape=umlLifeline;perimeter=lifelinePerimeter;whiteSpace=wrap;html=1;container=0;dropTarget=0;collapsible=0;recursiveResize=0;outlineConnect=0;portConstraint=eastwest;newEdgeStyle={&quot;edgeStyle&quot;:&quot;elbowEdgeStyle&quot;,&quot;elbow&quot;:&quot;vertical&quot;,&quot;curved&quot;:0,&quot;rounded&quot;:0};fillColor=#dae8fc;strokeColor=#6c8ebf;" parent="1" vertex="1">
          <mxGeometry x="160" y="120" width="100" height="480" as="geometry" />
        </mxCell>
        <mxCell id="SVFjwH6glS1T2FLCE4Vb-5" value="" style="html=1;points=[];perimeter=orthogonalPerimeter;outlineConnect=0;targetShapes=umlLifeline;portConstraint=eastwest;newEdgeStyle={&quot;edgeStyle&quot;:&quot;elbowEdgeStyle&quot;,&quot;elbow&quot;:&quot;vertical&quot;,&quot;curved&quot;:0,&quot;rounded&quot;:0};" parent="SVFjwH6glS1T2FLCE4Vb-4" vertex="1">
          <mxGeometry x="45" y="70" width="10" height="410" as="geometry" />
        </mxCell>
        <mxCell id="SVFjwH6glS1T2FLCE4Vb-8" value="SaleProcessView" style="shape=umlLifeline;perimeter=lifelinePerimeter;whiteSpace=wrap;html=1;container=1;dropTarget=0;collapsible=0;recursiveResize=0;outlineConnect=0;portConstraint=eastwest;newEdgeStyle={&quot;curved&quot;:0,&quot;rounded&quot;:0};fillColor=#dae8fc;strokeColor=#6c8ebf;" parent="1" vertex="1">
          <mxGeometry x="320" y="120" width="100" height="480" as="geometry" />
        </mxCell>
        <mxCell id="SVFjwH6glS1T2FLCE4Vb-9" value="" style="html=1;points=[[0,0,0,0,5],[0,1,0,0,-5],[1,0,0,0,5],[1,1,0,0,-5]];perimeter=orthogonalPerimeter;outlineConnect=0;targetShapes=umlLifeline;portConstraint=eastwest;newEdgeStyle={&quot;curved&quot;:0,&quot;rounded&quot;:0};" parent="SVFjwH6glS1T2FLCE4Vb-8" vertex="1">
          <mxGeometry x="45" y="80" width="10" height="280" as="geometry" />
        </mxCell>
        <mxCell id="SVFjwH6glS1T2FLCE4Vb-10" value="" style="endArrow=classic;html=1;rounded=0;" parent="1" edge="1">
          <mxGeometry width="50" height="50" relative="1" as="geometry">
            <mxPoint x="375" y="260" as="sourcePoint" />
            <mxPoint x="499" y="260" as="targetPoint" />
          </mxGeometry>
        </mxCell>
        <mxCell id="SVFjwH6glS1T2FLCE4Vb-11" value="switchPage()" style="text;html=1;strokeColor=none;fillColor=none;align=center;verticalAlign=middle;whiteSpace=wrap;rounded=0;" parent="1" vertex="1">
          <mxGeometry x="407" y="236" width="60" height="30" as="geometry" />
        </mxCell>
        <mxCell id="SVFjwH6glS1T2FLCE4Vb-13" value="" style="endArrow=classic;html=1;rounded=0;" parent="1" edge="1">
          <mxGeometry width="50" height="50" relative="1" as="geometry">
            <mxPoint x="516.0033333333333" y="310" as="sourcePoint" />
            <mxPoint x="722.42" y="310" as="targetPoint" />
          </mxGeometry>
        </mxCell>
        <mxCell id="SVFjwH6glS1T2FLCE4Vb-15" value="checkAvaiability(Ticket)" style="text;html=1;strokeColor=none;fillColor=none;align=center;verticalAlign=middle;whiteSpace=wrap;rounded=0;" parent="1" vertex="1">
          <mxGeometry x="588" y="286" width="60" height="30" as="geometry" />
        </mxCell>
        <mxCell id="SVFjwH6glS1T2FLCE4Vb-18" value="" style="endArrow=classic;html=1;rounded=0;" parent="1" edge="1">
          <mxGeometry width="50" height="50" relative="1" as="geometry">
            <mxPoint x="517" y="392" as="sourcePoint" />
            <mxPoint x="727" y="392" as="targetPoint" />
          </mxGeometry>
        </mxCell>
        <mxCell id="SVFjwH6glS1T2FLCE4Vb-19" value="getUnitaryPrice()" style="edgeLabel;html=1;align=center;verticalAlign=middle;resizable=0;points=[];" parent="SVFjwH6glS1T2FLCE4Vb-18" vertex="1" connectable="0">
          <mxGeometry x="-0.1813" y="1" relative="1" as="geometry">
            <mxPoint x="17" y="-8" as="offset" />
          </mxGeometry>
        </mxCell>
        <mxCell id="SVFjwH6glS1T2FLCE4Vb-20" value="" style="endArrow=open;dashed=1;html=1;dashPattern=1 3;strokeWidth=2;rounded=0;endFill=0;" parent="1" edge="1">
          <mxGeometry width="50" height="50" relative="1" as="geometry">
            <mxPoint x="724" y="450" as="sourcePoint" />
            <mxPoint x="520" y="450" as="targetPoint" />
          </mxGeometry>
        </mxCell>
        <mxCell id="SVFjwH6glS1T2FLCE4Vb-21" value="return" style="edgeLabel;html=1;align=center;verticalAlign=middle;resizable=0;points=[];" parent="SVFjwH6glS1T2FLCE4Vb-20" vertex="1" connectable="0">
          <mxGeometry x="0.4317" y="-1" relative="1" as="geometry">
            <mxPoint x="42" y="-9" as="offset" />
          </mxGeometry>
        </mxCell>
        <mxCell id="SVFjwH6glS1T2FLCE4Vb-22" value="ProjectionDAO" style="shape=umlLifeline;perimeter=lifelinePerimeter;whiteSpace=wrap;html=1;container=0;dropTarget=0;collapsible=0;recursiveResize=0;outlineConnect=0;portConstraint=eastwest;newEdgeStyle={&quot;edgeStyle&quot;:&quot;elbowEdgeStyle&quot;,&quot;elbow&quot;:&quot;vertical&quot;,&quot;curved&quot;:0,&quot;rounded&quot;:0};fillColor=#dae8fc;strokeColor=#6c8ebf;" parent="1" vertex="1">
          <mxGeometry x="840" y="120" width="100" height="480" as="geometry" />
        </mxCell>
        <mxCell id="SVFjwH6glS1T2FLCE4Vb-23" value="" style="html=1;points=[];perimeter=orthogonalPerimeter;outlineConnect=0;targetShapes=umlLifeline;portConstraint=eastwest;newEdgeStyle={&quot;edgeStyle&quot;:&quot;elbowEdgeStyle&quot;,&quot;elbow&quot;:&quot;vertical&quot;,&quot;curved&quot;:0,&quot;rounded&quot;:0};" parent="SVFjwH6glS1T2FLCE4Vb-22" vertex="1">
          <mxGeometry x="45" y="170" width="10" height="160" as="geometry" />
        </mxCell>
        <mxCell id="SVFjwH6glS1T2FLCE4Vb-24" value="" style="endArrow=classic;html=1;rounded=0;entryX=0.5;entryY=0.344;entryDx=0;entryDy=0;entryPerimeter=0;" parent="1" edge="1">
          <mxGeometry width="50" height="50" relative="1" as="geometry">
            <mxPoint x="736" y="316" as="sourcePoint" />
            <mxPoint x="886" y="316.03999999999996" as="targetPoint" />
          </mxGeometry>
        </mxCell>
        <mxCell id="SVFjwH6glS1T2FLCE4Vb-25" value="checkSeats(Ticket)" style="edgeLabel;html=1;align=center;verticalAlign=middle;resizable=0;points=[];" parent="SVFjwH6glS1T2FLCE4Vb-24" vertex="1" connectable="0">
          <mxGeometry x="0.0753" y="2" relative="1" as="geometry">
            <mxPoint x="-6" y="-7" as="offset" />
          </mxGeometry>
        </mxCell>
        <mxCell id="SVFjwH6glS1T2FLCE4Vb-26" value="" style="endArrow=classic;html=1;rounded=0;" parent="1" edge="1">
          <mxGeometry width="50" height="50" relative="1" as="geometry">
            <mxPoint x="736" y="405" as="sourcePoint" />
            <mxPoint x="876" y="405" as="targetPoint" />
          </mxGeometry>
        </mxCell>
        <mxCell id="SVFjwH6glS1T2FLCE4Vb-27" value="getPrice(Ticket)" style="edgeLabel;html=1;align=center;verticalAlign=middle;resizable=0;points=[];" parent="SVFjwH6glS1T2FLCE4Vb-26" vertex="1" connectable="0">
          <mxGeometry x="0.0753" y="2" relative="1" as="geometry">
            <mxPoint y="-8" as="offset" />
          </mxGeometry>
        </mxCell>
        <mxCell id="SVFjwH6glS1T2FLCE4Vb-29" value="" style="endArrow=open;dashed=1;html=1;dashPattern=1 3;strokeWidth=2;rounded=0;endFill=0;" parent="1" edge="1">
          <mxGeometry width="50" height="50" relative="1" as="geometry">
            <mxPoint x="881.5" y="360" as="sourcePoint" />
            <mxPoint x="737" y="360" as="targetPoint" />
          </mxGeometry>
        </mxCell>
        <mxCell id="XURBoSw-mr98O_FVrbe_-8" value="return" style="edgeLabel;html=1;align=center;verticalAlign=middle;resizable=0;points=[];" vertex="1" connectable="0" parent="SVFjwH6glS1T2FLCE4Vb-29">
          <mxGeometry x="-0.4201" y="-3" relative="1" as="geometry">
            <mxPoint x="-29" y="-6" as="offset" />
          </mxGeometry>
        </mxCell>
        <mxCell id="SVFjwH6glS1T2FLCE4Vb-31" value="" style="endArrow=open;dashed=1;html=1;dashPattern=1 3;strokeWidth=2;rounded=0;endFill=0;" parent="1" edge="1">
          <mxGeometry width="50" height="50" relative="1" as="geometry">
            <mxPoint x="885" y="441" as="sourcePoint" />
            <mxPoint x="740" y="441" as="targetPoint" />
          </mxGeometry>
        </mxCell>
        <mxCell id="SVFjwH6glS1T2FLCE4Vb-32" value="return" style="edgeLabel;html=1;align=center;verticalAlign=middle;resizable=0;points=[];" parent="SVFjwH6glS1T2FLCE4Vb-31" vertex="1" connectable="0">
          <mxGeometry x="-0.5506" y="2" relative="1" as="geometry">
            <mxPoint x="-39" y="-13" as="offset" />
          </mxGeometry>
        </mxCell>
        <mxCell id="SVFjwH6glS1T2FLCE4Vb-33" value="CinemaDB" style="shape=umlLifeline;perimeter=lifelinePerimeter;whiteSpace=wrap;html=1;container=0;dropTarget=0;collapsible=0;recursiveResize=0;outlineConnect=0;portConstraint=eastwest;newEdgeStyle={&quot;edgeStyle&quot;:&quot;elbowEdgeStyle&quot;,&quot;elbow&quot;:&quot;vertical&quot;,&quot;curved&quot;:0,&quot;rounded&quot;:0};fillColor=#dae8fc;strokeColor=#6c8ebf;" parent="1" vertex="1">
          <mxGeometry x="980" y="119" width="100" height="481" as="geometry" />
        </mxCell>
        <mxCell id="SVFjwH6glS1T2FLCE4Vb-34" value="" style="html=1;points=[];perimeter=orthogonalPerimeter;outlineConnect=0;targetShapes=umlLifeline;portConstraint=eastwest;newEdgeStyle={&quot;edgeStyle&quot;:&quot;elbowEdgeStyle&quot;,&quot;elbow&quot;:&quot;vertical&quot;,&quot;curved&quot;:0,&quot;rounded&quot;:0};" parent="SVFjwH6glS1T2FLCE4Vb-33" vertex="1">
          <mxGeometry x="45" y="180" width="10" height="150" as="geometry" />
        </mxCell>
        <mxCell id="SVFjwH6glS1T2FLCE4Vb-35" value="" style="endArrow=classic;html=1;rounded=0;" parent="1" edge="1">
          <mxGeometry width="50" height="50" relative="1" as="geometry">
            <mxPoint x="897" y="328" as="sourcePoint" />
            <mxPoint x="1020" y="328" as="targetPoint" />
          </mxGeometry>
        </mxCell>
        <mxCell id="SVFjwH6glS1T2FLCE4Vb-36" value="checkSeats(Ticket)" style="edgeLabel;html=1;align=center;verticalAlign=middle;resizable=0;points=[];" parent="SVFjwH6glS1T2FLCE4Vb-35" vertex="1" connectable="0">
          <mxGeometry x="0.0753" y="2" relative="1" as="geometry">
            <mxPoint x="-4" y="-7" as="offset" />
          </mxGeometry>
        </mxCell>
        <mxCell id="SVFjwH6glS1T2FLCE4Vb-37" value="" style="endArrow=open;dashed=1;html=1;dashPattern=1 3;strokeWidth=2;rounded=0;endFill=0;" parent="1" edge="1">
          <mxGeometry width="50" height="50" relative="1" as="geometry">
            <mxPoint x="1022" y="344" as="sourcePoint" />
            <mxPoint x="896" y="344.41" as="targetPoint" />
          </mxGeometry>
        </mxCell>
        <mxCell id="XURBoSw-mr98O_FVrbe_-7" value="return" style="edgeLabel;html=1;align=center;verticalAlign=middle;resizable=0;points=[];" vertex="1" connectable="0" parent="SVFjwH6glS1T2FLCE4Vb-37">
          <mxGeometry x="-0.1366" y="-2" relative="1" as="geometry">
            <mxPoint x="-8" y="-7" as="offset" />
          </mxGeometry>
        </mxCell>
        <mxCell id="SVFjwH6glS1T2FLCE4Vb-39" value="" style="endArrow=classic;html=1;rounded=0;" parent="1" edge="1">
          <mxGeometry width="50" height="50" relative="1" as="geometry">
            <mxPoint x="897" y="416" as="sourcePoint" />
            <mxPoint x="1020" y="416" as="targetPoint" />
          </mxGeometry>
        </mxCell>
        <mxCell id="SVFjwH6glS1T2FLCE4Vb-40" value="getPrice(Ticket)" style="edgeLabel;html=1;align=center;verticalAlign=middle;resizable=0;points=[];" parent="SVFjwH6glS1T2FLCE4Vb-39" vertex="1" connectable="0">
          <mxGeometry x="0.0753" y="2" relative="1" as="geometry">
            <mxPoint y="-8" as="offset" />
          </mxGeometry>
        </mxCell>
        <mxCell id="XURBoSw-mr98O_FVrbe_-4" value="UC2: Processo di vendita online" style="shape=note;whiteSpace=wrap;html=1;size=7;verticalAlign=top;align=left;spacingTop=-6;rounded=0;shadow=0;comic=0;labelBackgroundColor=none;strokeWidth=1;fontFamily=Verdana;fontSize=12;fillColor=#fff2cc;strokeColor=#d6b656;" vertex="1" parent="1">
          <mxGeometry x="160" y="44" width="130" height="35" as="geometry" />
        </mxCell>
        <mxCell id="XURBoSw-mr98O_FVrbe_-5" value="" style="endArrow=open;dashed=1;html=1;dashPattern=1 3;strokeWidth=2;rounded=0;endFill=0;entryX=0.007;entryY=0.448;entryDx=0;entryDy=0;entryPerimeter=0;" edge="1" parent="1">
          <mxGeometry width="50" height="50" relative="1" as="geometry">
            <mxPoint x="725" y="371.884" as="sourcePoint" />
            <mxPoint x="519.7449999999999" y="371.884" as="targetPoint" />
          </mxGeometry>
        </mxCell>
        <mxCell id="XURBoSw-mr98O_FVrbe_-6" value="return" style="edgeLabel;html=1;align=center;verticalAlign=middle;resizable=0;points=[];" vertex="1" connectable="0" parent="XURBoSw-mr98O_FVrbe_-5">
          <mxGeometry x="-0.1484" relative="1" as="geometry">
            <mxPoint x="-20" y="-10" as="offset" />
          </mxGeometry>
        </mxCell>
        <mxCell id="XURBoSw-mr98O_FVrbe_-10" value="" style="endArrow=open;dashed=1;html=1;dashPattern=1 3;strokeWidth=2;rounded=0;endFill=0;" edge="1" parent="1">
          <mxGeometry width="50" height="50" relative="1" as="geometry">
            <mxPoint x="1021" y="435" as="sourcePoint" />
            <mxPoint x="901" y="435" as="targetPoint" />
          </mxGeometry>
        </mxCell>
        <mxCell id="XURBoSw-mr98O_FVrbe_-11" value="return" style="edgeLabel;html=1;align=center;verticalAlign=middle;resizable=0;points=[];" vertex="1" connectable="0" parent="XURBoSw-mr98O_FVrbe_-10">
          <mxGeometry x="-0.5506" y="2" relative="1" as="geometry">
            <mxPoint x="-39" y="-13" as="offset" />
          </mxGeometry>
        </mxCell>
      </root>
    </mxGraphModel>
  </diagram>
</mxfile>
